:SAMPLES-PER-SECOND 30
:FULLY-SPECIFIED
:DEGREES
51
root  -19.871 39.1357 -17.5447 168.161 -63.9396 -171.215
RightUpLeg  6.35869 -16.7926 -1.60414
RightLeg  22.333 2.85489 1.19597
RightFoot  -20.4054 0.0631771 2.52548
RightToes  0.00048216 0.542163 -0.142577
Spine  17.4429 -1.62008 11.5666
Spine1  11.8422 0.793068 -2.86869
HEad  7.79564 11.9544 -10.7978
LeftShoulder1  7.77066 -12.8005 -41.3296
LeftArm  -12.2835 3.5644 -29.3421
LeftForeArm  20.9767 -11.1227 -5.14936
LeftHand  -0.25398 0.0180481 5.50724
RightShoulder  4.36431 9.07882 28.6957
RightArm  -10.7584 19.9613 23.5465
RightForeArm  -2.52198 17.6239 5.64024
RightHand  -1.56322 4.34876 -18.8203
LeftUpLeg  -22.4601 8.17771 5.41355
LeftLeg  0.535936 25.5249 -6.43757
LeftFoot  -4.46098 0.3911 -6.05685
LeftToes  1.06243e-005 4.65856e-005 -8.18503e-006
52
root  -21.2257 38.7569 -18.1796 166.135 -64.1623 -169.481
RightUpLeg  9.36528 -15.9656 -1.26443
RightLeg  22.6231 1.67366 0.597867
RightFoot  -22.4806 0.161749 3.20276
RightToes  0.00048216 0.542163 -0.142577
Spine  17.0071 -1.49031 11.7003
Spine1  12.4737 1.02601 -3.24594
HEad  7.73863 12.3077 -10.2317
LeftShoulder1  7.68856 -12.7254 -41.0622
LeftArm  -12.6654 4.35234 -28.2931
LeftForeArm  19.7415 -8.17821 -5.21772
LeftHand  -0.25398 0.0180481 5.50724
RightShoulder  4.37507 9.1534 28.5733
RightArm  -10.2122 22.0131 24.0656
RightForeArm  -2.39206 17.3193 5.75731
RightHand  -1.59522 4.42791 -19.0448
LeftUpLeg  -22.2859 6.72289 6.34716
LeftLeg  -6.25366 30.2901 -8.79479
LeftFoot  -4.2642 0.38342 -5.79888
LeftToes  1.06243e-005 4.65856e-005 -8.18503e-006
53
root  -22.6876 38.308 -18.8233 163.698 -65.2326 -167.036
RightUpLeg  12.4974 -16.4822 -1.29382
RightLeg  22.9117 1.46002 0.489431
RightFoot  -24.033 0.344083 4.56831
RightToes  0.00048216 0.542163 -0.142577
Spine  16.485 -1.60191 11.7403
Spine1  12.8091 0.849117 -3.29014
HEad  7.63165 12.4463 -9.5253
LeftShoulder1  7.65007 -12.7365 -40.8093
LeftArm  -12.2219 4.74069 -27.2698
LeftForeArm  18.9062 -5.52094 -5.14232
LeftHand  -0.25398 0.0180481 5.50724
RightShoulder  4.40136 9.23863 28.5479
RightArm  -8.86209 22.681 24.9538
RightForeArm  -3.18795 18.3835 5.59928
RightHand  -1.60796 4.37785 -19.2862
LeftUpLeg  -23.2924 6.7305 6.49787
LeftLeg  -7.54969 32.4981 -9.41033
LeftFoot  -5.49801 0.365415 -6.46713
LeftToes  1.06243e-005 4.65856e-005 -8.18503e-006
54
root  -24.2388 37.8874 -19.4925 162.443 -66.652 -165.355
RightUpLeg  15.1734 -17.1055 -1.69518
RightLeg  23.2865 1.24362 0.373362
RightFoot  -24.9635 0.498979 5.58979
RightToes  0.00048216 0.542163 -0.142577
Spine  15.8939 -1.54268 10.9297
Spine1  13.1006 0.757737 -3.09538
HEad  7.53663 12.1445 -8.70729
LeftShoulder1  7.60958 -12.7729 -40.4757
LeftArm  -11.7131 4.77152 -26.4285
LeftForeArm  18.8396 -3.43951 -5.14096
LeftHand  -0.25398 0.0180481 5.50724
RightShoulder  4.49653 9.38801 28.8933
RightArm  -7.15076 21.848 25.6323
RightForeArm  -3.83084 20.82 5.23709
RightHand  -1.53044 3.94618 -19.191
LeftUpLeg  -24.2949 7.03861 6.01956
LeftLeg  -6.0012 33.7931 -9.43995
LeftFoot  -5.74059 0.314129 -5.64792
LeftToes  1.06243e-005 4.65856e-005 -8.18503e-006
55
root  -25.8307 37.523 -20.1778 163.888 -67.6781 -166.083
RightUpLeg  16.9745 -16.6178 -2.52423
RightLeg  24.0767 0.757094 0.139644
RightFoot  -25.6528 0.786455 7.60571
RightToes  0.00048216 0.542163 -0.142577
Spine  15.6144 -0.92622 8.74708
Spine1  13.2658 1.11062 -2.72989
HEad  7.39985 11.5043 -7.93529
LeftShoulder1  7.57083 -12.7763 -40.242
LeftArm  -11.6828 4.76735 -25.6549
LeftForeArm  18.9867 -2.62112 -5.06498
LeftHand  -0.25398 0.0180481 5.50724
RightShoulder  4.72071 9.6675 29.8726
RightArm  -6.25194 19.9252 25.6634
RightForeArm  -2.29761 23.8699 5.19522
RightHand  -1.36821 3.18614 -18.6644
LeftUpLeg  -25.8088 8.00594 4.82502
LeftLeg  -1.90259 34.7202 -8.40998
LeftFoot  -2.26399 0.0680925 -1.0245
LeftToes  1.06243e-005 4.65856e-005 -8.18503e-006
56
root  -27.3729 37.2049 -20.8247 167.446 -68.5203 -169.058
RightUpLeg  17.3798 -15.6089 -4.05794
RightLeg  27.0385 0.621503 0.119705
RightFoot  -24.8076 1.22819 11.9277
RightToes  0.00048216 0.542163 -0.142577
Spine  16.4642 -0.0419007 5.51615
Spine1  12.891 1.47923 -2.1627
HEad  6.79696 10.6936 -7.38255
LeftShoulder1  7.61398 -12.8537 -40.2827
LeftArm  -12.4163 4.70205 -24.7211
LeftForeArm  18.8312 -3.45309 -4.84345
LeftHand  -0.25398 0.0180481 5.50724
RightShoulder  5.04294 10.0366 31.2945
RightArm  -6.01888 17.8992 25.3351
RightForeArm  0.964606 26.3995 5.62098
RightHand  -1.18889 2.33456 -17.9927
LeftUpLeg  -29.1324 12.7726 0.887931
LeftLeg  5.56715 30.3985 -4.81117
LeftFoot  4.57809 -0.985369 6.64962
LeftToes  1.06243e-005 4.65856e-005 -8.18503e-006
57
root  -28.778 37.0057 -21.3565 171.113 -70.0654 -172.504
RightUpLeg  15.1557 -15.467 -6.03063
RightLeg  34.6746 0.346366 -0.0219973
RightFoot  -19.2749 0.96569 15.7679
RightToes  0.00048216 0.542163 -0.142577
Spine  19.0777 0.355924 2.55601
Spine1  11.8849 1.26114 -1.64339
HEad  5.18967 9.65882 -7.19234
LeftShoulder1  7.75937 -13.1858 -40.2318
LeftArm  -13.4741 3.89815 -24.0097
LeftForeArm  17.9 -5.13665 -4.66527
LeftHand  -0.25398 0.0180481 5.50724
RightShoulder  5.32588 10.3918 32.3861
RightArm  -5.19466 16.8084 25.4978
RightForeArm  3.01203 27.3819 5.74387
RightHand  -1.03132 1.54048 -17.3676
LeftUpLeg  -33.9924 23.4888 -8.5867
LeftLeg  12.2967 15.8487 -0.409157
LeftFoot  10.7931 -2.72761 13.6761
LeftToes  1.06243e-005 4.65856e-005 -8.18503e-006
58
root  -29.9572 36.9303 -21.7192 174.059 -72.218 -175.446
RightUpLeg  9.4021 -16.0672 -7.63013
RightLeg  46.822 -0.704754 -1.1801
RightFoot  -8.50509 -0.396143 15.2382
RightToes  0.00048216 0.542163 -0.142577
Spine  23.3447 0.0926122 1.04643
Spine1  10.7435 0.632121 -1.62995
HEad  2.57986 8.32526 -7.54698
LeftShoulder1  7.88702 -13.7809 -39.4166
LeftArm  -14.4106 1.62675 -24.4361
LeftForeArm  16.1781 -6.08987 -4.60211
LeftHand  -0.25398 0.0180481 5.50724
RightShoulder  5.4388 10.7013 32.345
RightArm  -4.32099 17.1608 26.5885
RightForeArm  3.37527 26.2455 5.44673
RightHand  -0.867818 0.778876 -16.3713
LeftUpLeg  -38.0635 29.6187 -16.4587
LeftLeg  17.0856 5.15019 2.24139
LeftFoot  11.8198 -3.59869 17.1231
LeftToes  1.06243e-005 4.65856e-005 -8.18503e-006
